<?xml version="1.0" standalone="no"?><!-- Generator: Gravit.io --><svg xmlns="http://www.w3.org/2000/svg" xmlns:xlink="http://www.w3.org/1999/xlink" style="isolation:isolate" viewBox="0 0 250 250" width="250" height="250"><defs><clipPath id="_clipPath_FwiRZxodpi2oeWrMkmSuT2LpjKuHN1jx"><rect width="250" height="250"/></clipPath></defs><g clip-path="url(#_clipPath_FwiRZxodpi2oeWrMkmSuT2LpjKuHN1jx)"><rect width="250" height="250" style="fill:rgb(0,0,0)" fill-opacity="0"/><defs><filter id="MzaWOIvj6ngOdBkuqAACXycVep3EMlVH" x="-200%" y="-200%" width="400%" height="400%" filterUnits="objectBoundingBox" color-interpolation-filters="sRGB"><feOffset xmlns="http://www.w3.org/2000/svg" in="SourceGraphic" dx="0" dy="3"/><feGaussianBlur xmlns="http://www.w3.org/2000/svg" stdDeviation="2.146804531419514" result="pf_100_offsetBlur"/><feComposite xmlns="http://www.w3.org/2000/svg" in="SourceGraphic" in2="pf_100_offsetBlur" result="pf_100_inverse" operator="out"/><feFlood xmlns="http://www.w3.org/2000/svg" flood-color="#FFFFFF" flood-opacity="0.5" result="pf_100_color"/><feComposite xmlns="http://www.w3.org/2000/svg" in="pf_100_color" in2="pf_100_inverse" operator="in" result="pf_100_shadow"/><feComposite xmlns="http://www.w3.org/2000/svg" in="pf_100_shadow" in2="SourceGraphic" operator="over" result="_out_vuOZRW6LzoKx7mPjobNTnvOUQAW14DV8"/><feOffset xmlns="http://www.w3.org/2000/svg" in="_out_vuOZRW6LzoKx7mPjobNTnvOUQAW14DV8" dx="0" dy="-3"/><feGaussianBlur xmlns="http://www.w3.org/2000/svg" stdDeviation="2.146804531419514" result="pf_101_offsetBlur"/><feComposite xmlns="http://www.w3.org/2000/svg" in="_out_vuOZRW6LzoKx7mPjobNTnvOUQAW14DV8" in2="pf_101_offsetBlur" result="pf_101_inverse" operator="out"/><feFlood xmlns="http://www.w3.org/2000/svg" flood-color="#000000" flood-opacity="0.5" result="pf_101_color"/><feComposite xmlns="http://www.w3.org/2000/svg" in="pf_101_color" in2="pf_101_inverse" operator="in" result="pf_101_shadow"/><feComposite xmlns="http://www.w3.org/2000/svg" in="pf_101_shadow" in2="_out_vuOZRW6LzoKx7mPjobNTnvOUQAW14DV8" operator="over" result="_out_LCpLDmIQ1yyTSpuChcUulWDEn0jYx0hp"/><feMerge><feMergeNode in="_out_LCpLDmIQ1yyTSpuChcUulWDEn0jYx0hp"/></feMerge></filter></defs><g filter="url(#MzaWOIvj6ngOdBkuqAACXycVep3EMlVH)"><path d="M 15 0 L 235 0 C 243.279 0 250 6.721 250 15 L 250 235 C 250 243.279 243.279 250 235 250 L 15 250 C 6.721 250 0 243.279 0 235 L 0 15 C 0 6.721 6.721 0 15 0 Z" style="stroke:none;fill:#C83737;stroke-miterlimit:10;"/></g><g filter="url(#uf6fKMCkAOYA6WfEbYzJFwDQ2S5O0oHn)"><path d=" M 62 163.111 C 59.298 161.684 57.446 158.843 57.446 155.59 L 57.446 125 L 44.275 125 L 44.275 69.767 C 44.275 65.094 48.099 61.27 52.773 61.27 L 105.031 61.27 C 107.156 61.27 108.855 61.695 110.13 62.969 L 126.699 76.14 C 128.399 77.415 130.098 77.84 131.798 77.84 L 197.227 77.84 C 201.901 78.265 205.725 82.088 205.725 86.762 L 205.725 125 L 192.554 125 L 192.554 125 L 192.554 99.508 C 192.554 94.834 188.73 91.011 184.056 91.011 L 65.944 91.011 C 61.27 91.011 57.446 94.834 57.446 99.508 L 57.446 125 L 192.554 125 L 192.554 125 L 192.554 155.59 C 192.554 158.843 190.702 161.684 188 163.111 L 188 133 L 62 133 L 62 163.111 Z " fill="rgb(255,255,255)"/><g><path d=" M 205.725 113.529 L 205.725 180.233 C 205.725 184.906 201.901 188.73 197.227 188.73 L 52.773 188.73 C 48.099 188.73 44.275 184.906 44.275 180.233 L 44.275 113.529 C 44.275 108.005 48.949 103.757 54.472 103.757 L 195.103 103.757 C 201.051 103.757 205.725 108.43 205.725 113.529 Z  M 62 132 L 188 132 L 188 175 L 62 175 L 62 132 Z " fill-rule="evenodd" fill="rgb(255,255,255)"/></g><path d=" M 67.5 138.585 L 182.5 138.585 L 182.5 169.585 L 67.5 169.585 L 67.5 138.585 Z  M 84 145.03 L 91 145.03 L 91 163.141 L 84 163.141 L 84 145.03 Z " fill-rule="evenodd" fill="rgb(255,255,255)"/></g><defs><filter id="uf6fKMCkAOYA6WfEbYzJFwDQ2S5O0oHn" x="-200%" y="-200%" width="400%" height="400%" filterUnits="objectBoundingBox" color-interpolation-filters="sRGB"><feGaussianBlur xmlns="http://www.w3.org/2000/svg" in="SourceGraphic" stdDeviation="2.146804531419514"/><feOffset xmlns="http://www.w3.org/2000/svg" dx="-5" dy="5" result="pf_100_offsetBlur"/><feFlood xmlns="http://www.w3.org/2000/svg" flood-color="#000000" flood-opacity="0.5"/><feComposite xmlns="http://www.w3.org/2000/svg" in2="pf_100_offsetBlur" operator="in" result="pf_100_dropShadow"/><feBlend xmlns="http://www.w3.org/2000/svg" in="SourceGraphic" in2="pf_100_dropShadow" mode="normal"/></filter></defs></g></svg>