<?xml version="1.0" standalone="no"?><!-- Generator: Gravit.io --><svg xmlns="http://www.w3.org/2000/svg" xmlns:xlink="http://www.w3.org/1999/xlink" style="isolation:isolate" viewBox="0 0 250 250" width="250" height="250"><defs><clipPath id="_clipPath_kIzvXTHcVVZsk0NjbSleZrA0JmasqQmJ"><rect width="250" height="250"/></clipPath></defs><g clip-path="url(#_clipPath_kIzvXTHcVVZsk0NjbSleZrA0JmasqQmJ)"><rect width="250" height="250" style="fill:rgb(0,0,0)" fill-opacity="0"/><defs><filter id="YKClFCG9Ps9GRaEty8fxLJXgDWj6B4g9" x="-200%" y="-200%" width="400%" height="400%" filterUnits="objectBoundingBox" color-interpolation-filters="sRGB"><feOffset xmlns="http://www.w3.org/2000/svg" in="SourceGraphic" dx="0" dy="3"/><feGaussianBlur xmlns="http://www.w3.org/2000/svg" stdDeviation="2.146804531419514" result="pf_100_offsetBlur"/><feComposite xmlns="http://www.w3.org/2000/svg" in="SourceGraphic" in2="pf_100_offsetBlur" result="pf_100_inverse" operator="out"/><feFlood xmlns="http://www.w3.org/2000/svg" flood-color="#FFFFFF" flood-opacity="0.5" result="pf_100_color"/><feComposite xmlns="http://www.w3.org/2000/svg" in="pf_100_color" in2="pf_100_inverse" operator="in" result="pf_100_shadow"/><feComposite xmlns="http://www.w3.org/2000/svg" in="pf_100_shadow" in2="SourceGraphic" operator="over" result="_out_v31S8V8qClehfU9vaOg9BAfLwJjkDF8Y"/><feOffset xmlns="http://www.w3.org/2000/svg" in="_out_v31S8V8qClehfU9vaOg9BAfLwJjkDF8Y" dx="0" dy="-3"/><feGaussianBlur xmlns="http://www.w3.org/2000/svg" stdDeviation="2.146804531419514" result="pf_101_offsetBlur"/><feComposite xmlns="http://www.w3.org/2000/svg" in="_out_v31S8V8qClehfU9vaOg9BAfLwJjkDF8Y" in2="pf_101_offsetBlur" result="pf_101_inverse" operator="out"/><feFlood xmlns="http://www.w3.org/2000/svg" flood-color="#000000" flood-opacity="0.5" result="pf_101_color"/><feComposite xmlns="http://www.w3.org/2000/svg" in="pf_101_color" in2="pf_101_inverse" operator="in" result="pf_101_shadow"/><feComposite xmlns="http://www.w3.org/2000/svg" in="pf_101_shadow" in2="_out_v31S8V8qClehfU9vaOg9BAfLwJjkDF8Y" operator="over" result="_out_GrhCIxkJ2NTIrBLocAjVbmkknrWPal2z"/><feMerge><feMergeNode in="_out_GrhCIxkJ2NTIrBLocAjVbmkknrWPal2z"/></feMerge></filter></defs><g filter="url(#YKClFCG9Ps9GRaEty8fxLJXgDWj6B4g9)"><path d="M 15 0 L 235 0 C 243.279 0 250 6.721 250 15 L 250 235 C 250 243.279 243.279 250 235 250 L 15 250 C 6.721 250 0 243.279 0 235 L 0 15 C 0 6.721 6.721 0 15 0 Z" style="stroke:none;fill:#C83737;stroke-miterlimit:10;"/></g><g filter="url(#mw4EUYxQAbF8jQtA9O6CVXbqMjxOSoKN)"><path d=" M 193.602 125 L 206.773 125 L 206.773 86.762 C 206.773 82.088 202.949 78.265 198.275 77.84 L 132.846 77.84 C 131.146 77.84 129.447 77.415 127.747 76.14 L 111.178 62.969 C 109.903 61.695 108.204 61.27 106.079 61.27 L 53.821 61.27 C 49.147 61.27 45.323 65.094 45.323 69.767 L 45.323 125 L 58.494 125 L 58.494 99.508 C 58.494 94.834 62.318 91.011 66.991 91.011 L 185.104 91.011 C 189.778 91.011 193.602 94.834 193.602 99.508 L 193.602 125 Z " fill="rgb(255,255,255)"/><path d=" M 206.773 113.529 L 206.773 180.233 C 206.773 184.906 202.949 188.73 198.275 188.73 L 53.821 188.73 C 49.147 188.73 45.323 184.906 45.323 180.233 L 45.323 113.529 C 45.323 108.005 49.997 103.757 55.52 103.757 L 196.151 103.757 C 202.099 103.757 206.773 108.43 206.773 113.529 Z  M 103.75 157.393 L 92.6 157.393 C 90.548 157.393 88.884 159.057 88.884 161.109 L 88.884 172.258 C 88.884 174.31 90.548 175.975 92.6 175.975 L 103.75 175.975 C 105.802 175.975 107.466 174.31 107.466 172.258 L 107.466 161.109 C 107.466 159.057 105.802 157.393 103.75 157.393 L 103.75 157.393 Z  M 100.962 148.102 L 123.261 148.102 L 123.261 153.676 L 128.835 153.676 L 128.835 148.102 L 151.134 148.102 L 151.134 153.676 L 156.708 153.676 L 156.708 146.988 C 156.708 144.529 154.707 142.527 152.247 142.527 L 128.835 142.527 L 128.835 135.094 L 133.481 135.094 C 135.533 135.094 137.197 133.43 137.197 131.378 L 137.197 120.229 C 137.197 118.176 135.533 116.512 133.481 116.512 L 118.615 116.512 C 116.563 116.512 114.899 118.176 114.899 120.229 L 114.899 131.378 C 114.899 133.43 116.563 135.094 118.615 135.094 L 123.261 135.094 L 123.261 142.527 L 99.849 142.527 C 97.389 142.527 95.388 144.528 95.388 146.988 L 95.388 153.676 L 100.962 153.676 L 100.962 148.102 L 100.962 148.102 Z  M 131.623 157.393 L 120.473 157.393 C 118.421 157.393 116.757 159.057 116.757 161.109 L 116.757 172.258 C 116.757 174.31 118.421 175.975 120.473 175.975 L 131.623 175.975 C 133.675 175.975 135.339 174.31 135.339 172.258 L 135.339 161.109 C 135.339 159.057 133.675 157.393 131.623 157.393 L 131.623 157.393 Z  M 159.496 157.393 L 148.346 157.393 C 146.294 157.393 144.63 159.057 144.63 161.109 L 144.63 172.258 C 144.63 174.31 146.294 175.975 148.346 175.975 L 159.496 175.975 C 161.548 175.975 163.212 174.31 163.212 172.258 L 163.212 161.109 C 163.212 159.057 161.548 157.393 159.496 157.393 L 159.496 157.393 Z " fill-rule="evenodd" fill="rgb(255,255,255)"/></g><defs><filter id="mw4EUYxQAbF8jQtA9O6CVXbqMjxOSoKN" x="-200%" y="-200%" width="400%" height="400%" filterUnits="objectBoundingBox" color-interpolation-filters="sRGB"><feGaussianBlur xmlns="http://www.w3.org/2000/svg" in="SourceGraphic" stdDeviation="2.146804531419514"/><feOffset xmlns="http://www.w3.org/2000/svg" dx="-5" dy="5" result="pf_100_offsetBlur"/><feFlood xmlns="http://www.w3.org/2000/svg" flood-color="#000000" flood-opacity="0.5"/><feComposite xmlns="http://www.w3.org/2000/svg" in2="pf_100_offsetBlur" operator="in" result="pf_100_dropShadow"/><feBlend xmlns="http://www.w3.org/2000/svg" in="SourceGraphic" in2="pf_100_dropShadow" mode="normal"/></filter></defs></g></svg>