<?xml version="1.0" standalone="no"?><!-- Generator: Gravit.io --><svg xmlns="http://www.w3.org/2000/svg" xmlns:xlink="http://www.w3.org/1999/xlink" style="isolation:isolate" viewBox="0 0 250 250" width="250" height="250"><defs><clipPath id="_clipPath_rNGPG9kxshqkJhb6hwm6yPOcUa6YEcD4"><rect width="250" height="250"/></clipPath></defs><g clip-path="url(#_clipPath_rNGPG9kxshqkJhb6hwm6yPOcUa6YEcD4)"><rect width="250" height="250" style="fill:rgb(0,0,0)" fill-opacity="0"/><defs><filter id="zWLeNFdJJgqZhcwnszmrlenYqByTXnFX" x="-200%" y="-200%" width="400%" height="400%" filterUnits="objectBoundingBox" color-interpolation-filters="sRGB"><feOffset xmlns="http://www.w3.org/2000/svg" in="SourceGraphic" dx="0" dy="3"/><feGaussianBlur xmlns="http://www.w3.org/2000/svg" stdDeviation="2.146804531419514" result="pf_100_offsetBlur"/><feComposite xmlns="http://www.w3.org/2000/svg" in="SourceGraphic" in2="pf_100_offsetBlur" result="pf_100_inverse" operator="out"/><feFlood xmlns="http://www.w3.org/2000/svg" flood-color="#FFFFFF" flood-opacity="0.5" result="pf_100_color"/><feComposite xmlns="http://www.w3.org/2000/svg" in="pf_100_color" in2="pf_100_inverse" operator="in" result="pf_100_shadow"/><feComposite xmlns="http://www.w3.org/2000/svg" in="pf_100_shadow" in2="SourceGraphic" operator="over" result="_out_rKNqQrWbw1UIsExOa1dTBGZBb5QNNYdL"/><feOffset xmlns="http://www.w3.org/2000/svg" in="_out_rKNqQrWbw1UIsExOa1dTBGZBb5QNNYdL" dx="0" dy="-3"/><feGaussianBlur xmlns="http://www.w3.org/2000/svg" stdDeviation="2.146804531419514" result="pf_101_offsetBlur"/><feComposite xmlns="http://www.w3.org/2000/svg" in="_out_rKNqQrWbw1UIsExOa1dTBGZBb5QNNYdL" in2="pf_101_offsetBlur" result="pf_101_inverse" operator="out"/><feFlood xmlns="http://www.w3.org/2000/svg" flood-color="#000000" flood-opacity="0.5" result="pf_101_color"/><feComposite xmlns="http://www.w3.org/2000/svg" in="pf_101_color" in2="pf_101_inverse" operator="in" result="pf_101_shadow"/><feComposite xmlns="http://www.w3.org/2000/svg" in="pf_101_shadow" in2="_out_rKNqQrWbw1UIsExOa1dTBGZBb5QNNYdL" operator="over" result="_out_ik80antSTIE2nh46mh2lzj2oPDcThsHd"/><feMerge><feMergeNode in="_out_ik80antSTIE2nh46mh2lzj2oPDcThsHd"/></feMerge></filter></defs><g filter="url(#zWLeNFdJJgqZhcwnszmrlenYqByTXnFX)"><path d="M 15 0 L 235 0 C 243.279 0 250 6.721 250 15 L 250 235 C 250 243.279 243.279 250 235 250 L 15 250 C 6.721 250 0 243.279 0 235 L 0 15 C 0 6.721 6.721 0 15 0 Z" style="stroke:none;fill:#C83737;stroke-miterlimit:10;"/></g><g filter="url(#dxw2dGEBxkgnbSXgpmw43I8FdZ3FGTmp)"><path d=" M 193.602 125 L 206.773 125 L 206.773 86.762 C 206.773 82.088 202.949 78.265 198.275 77.84 L 132.846 77.84 C 131.146 77.84 129.447 77.415 127.747 76.14 L 111.178 62.969 C 109.903 61.695 108.204 61.27 106.079 61.27 L 53.821 61.27 C 49.147 61.27 45.323 65.094 45.323 69.767 L 45.323 125 L 58.494 125 L 58.494 99.508 C 58.494 94.834 62.318 91.011 66.991 91.011 L 185.104 91.011 C 189.778 91.011 193.602 94.834 193.602 99.508 L 193.602 125 Z  M 104.238 128.523 C 100.474 128.523 97.423 131.574 97.423 135.338 C 97.423 139.102 100.474 142.154 104.238 142.154 C 108.002 142.154 111.054 139.102 111.054 135.338 C 111.054 131.574 108.002 128.523 104.238 128.523 L 104.238 128.523 Z  M 98.786 162.601 L 153.31 162.601 L 153.31 148.97 L 138.399 134.058 C 137.6 133.26 136.306 133.26 135.507 134.058 L 115.143 154.422 L 108.41 147.689 C 107.612 146.891 106.317 146.891 105.518 147.689 L 98.786 154.422 L 98.786 162.601 L 98.786 162.601 Z  M 160.467 170.779 L 91.629 170.779 C 91.065 170.779 90.607 170.322 90.607 169.757 L 90.607 122.73 C 90.607 122.165 91.065 121.707 91.629 121.707 L 160.467 121.707 C 161.031 121.707 161.489 122.165 161.489 122.73 L 161.489 169.757 C 161.489 170.322 161.031 170.779 160.467 170.779 L 160.467 170.779 Z " fill-rule="evenodd" fill="rgb(255,255,255)"/><path d=" M 206.773 113.529 L 206.773 180.233 C 206.773 184.906 202.949 188.73 198.275 188.73 L 53.821 188.73 C 49.147 188.73 45.323 184.906 45.323 180.233 L 45.323 113.529 C 45.323 108.005 49.997 103.757 55.52 103.757 L 196.151 103.757 C 202.099 103.757 206.773 108.43 206.773 113.529 Z  M 104.238 128.523 C 100.474 128.523 97.423 131.574 97.423 135.338 C 97.423 139.102 100.474 142.154 104.238 142.154 C 108.002 142.154 111.054 139.102 111.054 135.338 C 111.054 131.574 108.002 128.523 104.238 128.523 L 104.238 128.523 Z  M 98.786 162.601 L 153.31 162.601 L 153.31 148.97 L 138.399 134.058 C 137.6 133.26 136.306 133.26 135.507 134.058 L 115.143 154.422 L 108.41 147.689 C 107.612 146.891 106.317 146.891 105.518 147.689 L 98.786 154.422 L 98.786 162.601 L 98.786 162.601 Z  M 160.467 170.779 L 91.629 170.779 C 91.065 170.779 90.607 170.322 90.607 169.757 L 90.607 122.73 C 90.607 122.165 91.065 121.707 91.629 121.707 L 160.467 121.707 C 161.031 121.707 161.489 122.165 161.489 122.73 L 161.489 169.757 C 161.489 170.322 161.031 170.779 160.467 170.779 L 160.467 170.779 Z  M 161.489 113.529 L 90.607 113.529 C 86.09 113.529 82.428 117.19 82.428 121.707 L 82.428 170.779 C 82.428 175.296 86.09 178.958 90.607 178.958 L 161.489 178.958 C 166.006 178.958 169.668 175.296 169.668 170.779 L 169.668 121.707 C 169.668 117.19 166.006 113.529 161.489 113.529 L 161.489 113.529 Z " fill-rule="evenodd" fill="rgb(255,255,255)"/></g><defs><filter id="dxw2dGEBxkgnbSXgpmw43I8FdZ3FGTmp" x="-200%" y="-200%" width="400%" height="400%" filterUnits="objectBoundingBox" color-interpolation-filters="sRGB"><feGaussianBlur xmlns="http://www.w3.org/2000/svg" in="SourceGraphic" stdDeviation="2.146804531419514"/><feOffset xmlns="http://www.w3.org/2000/svg" dx="-5" dy="5" result="pf_100_offsetBlur"/><feFlood xmlns="http://www.w3.org/2000/svg" flood-color="#000000" flood-opacity="0.65"/><feComposite xmlns="http://www.w3.org/2000/svg" in2="pf_100_offsetBlur" operator="in" result="pf_100_dropShadow"/><feBlend xmlns="http://www.w3.org/2000/svg" in="SourceGraphic" in2="pf_100_dropShadow" mode="normal"/></filter></defs></g></svg>