<?xml version="1.0" standalone="no"?><!-- Generator: Gravit.io --><svg xmlns="http://www.w3.org/2000/svg" xmlns:xlink="http://www.w3.org/1999/xlink" style="isolation:isolate" viewBox="0 0 250 250" width="250" height="250"><defs><clipPath id="_clipPath_3P8I01yrh7uPOy2BY5edrolbrFXpPyJx"><rect width="250" height="250"/></clipPath></defs><g clip-path="url(#_clipPath_3P8I01yrh7uPOy2BY5edrolbrFXpPyJx)"><rect width="250" height="250" style="fill:rgb(0,0,0)" fill-opacity="0"/><defs><filter id="4Dy7b84LLfS0qXzZJ2OhTJfTwATc7ANp" x="-200%" y="-200%" width="400%" height="400%" filterUnits="objectBoundingBox" color-interpolation-filters="sRGB"><feOffset xmlns="http://www.w3.org/2000/svg" in="SourceGraphic" dx="0" dy="3"/><feGaussianBlur xmlns="http://www.w3.org/2000/svg" stdDeviation="2.146804531419514" result="pf_100_offsetBlur"/><feComposite xmlns="http://www.w3.org/2000/svg" in="SourceGraphic" in2="pf_100_offsetBlur" result="pf_100_inverse" operator="out"/><feFlood xmlns="http://www.w3.org/2000/svg" flood-color="#FFFFFF" flood-opacity="0.5" result="pf_100_color"/><feComposite xmlns="http://www.w3.org/2000/svg" in="pf_100_color" in2="pf_100_inverse" operator="in" result="pf_100_shadow"/><feComposite xmlns="http://www.w3.org/2000/svg" in="pf_100_shadow" in2="SourceGraphic" operator="over" result="_out_quKUjmBdyDdAIgBu0D2hoHMPcPnpsVDm"/><feOffset xmlns="http://www.w3.org/2000/svg" in="_out_quKUjmBdyDdAIgBu0D2hoHMPcPnpsVDm" dx="0" dy="-3"/><feGaussianBlur xmlns="http://www.w3.org/2000/svg" stdDeviation="2.146804531419514" result="pf_101_offsetBlur"/><feComposite xmlns="http://www.w3.org/2000/svg" in="_out_quKUjmBdyDdAIgBu0D2hoHMPcPnpsVDm" in2="pf_101_offsetBlur" result="pf_101_inverse" operator="out"/><feFlood xmlns="http://www.w3.org/2000/svg" flood-color="#000000" flood-opacity="0.5" result="pf_101_color"/><feComposite xmlns="http://www.w3.org/2000/svg" in="pf_101_color" in2="pf_101_inverse" operator="in" result="pf_101_shadow"/><feComposite xmlns="http://www.w3.org/2000/svg" in="pf_101_shadow" in2="_out_quKUjmBdyDdAIgBu0D2hoHMPcPnpsVDm" operator="over" result="_out_MeUjJ8BFQ3iFcxbil3lWaSBmag80qL2J"/><feMerge><feMergeNode in="_out_MeUjJ8BFQ3iFcxbil3lWaSBmag80qL2J"/></feMerge></filter></defs><g filter="url(#4Dy7b84LLfS0qXzZJ2OhTJfTwATc7ANp)"><path d="M 15 0 L 235 0 C 243.279 0 250 6.721 250 15 L 250 235 C 250 243.279 243.279 250 235 250 L 15 250 C 6.721 250 0 243.279 0 235 L 0 15 C 0 6.721 6.721 0 15 0 Z" style="stroke:none;fill:#C83737;stroke-miterlimit:10;"/></g><g filter="url(#hwJuAEASKvgcc80uDq4bNbRYFLfMH3f1)"><path d=" M 206.773 113.772 L 206.773 180.476 C 206.773 185.15 202.949 188.973 198.275 188.973 L 53.821 188.973 C 49.147 188.973 45.323 185.15 45.323 180.476 L 45.323 113.772 C 45.323 108.249 49.997 104 55.52 104 L 196.151 104 C 202.099 104 206.773 108.674 206.773 113.772 Z  M 140.552 162.196 Q 140.552 163.275 139.299 164.044 Q 138.046 164.812 136.286 164.812 Q 134.526 164.812 133.273 164.044 Q 132.02 163.275 132.02 162.196 Q 132.02 161.116 133.273 160.347 Q 134.526 159.579 136.286 159.579 Q 138.046 159.579 139.299 160.347 Q 140.552 161.116 140.552 162.196 L 140.552 162.196 Z  M 154.202 162.196 Q 154.202 163.275 152.949 164.044 Q 151.696 164.812 149.937 164.812 Q 148.177 164.812 146.924 164.044 Q 145.671 163.275 145.671 162.196 Q 145.671 161.116 146.924 160.347 Q 148.177 159.579 149.937 159.579 Q 151.696 159.579 152.949 160.347 Q 154.202 161.116 154.202 162.196 L 154.202 162.196 Z  M 94.587 151.728 L 157.509 151.728 L 149.137 135.961 Q 148.924 135.535 148.284 135.257 Q 147.644 134.979 146.897 134.979 L 105.199 134.979 Q 104.452 134.979 103.812 135.257 Q 103.172 135.535 102.959 135.961 L 94.587 151.728 L 94.587 151.728 Z  M 160.175 167.429 L 160.175 156.962 Q 160.175 156.536 159.668 156.226 Q 159.162 155.915 158.468 155.915 L 93.628 155.915 Q 92.934 155.915 92.428 156.226 Q 91.921 156.536 91.921 156.962 L 91.921 167.429 Q 91.921 167.855 92.428 168.165 Q 92.934 168.476 93.628 168.476 L 158.468 168.476 Q 159.162 168.476 159.668 168.165 Q 160.175 167.855 160.175 167.429 L 160.175 167.429 Z  M 167 156.962 L 167 167.429 Q 167 169.588 164.494 171.126 Q 161.988 172.663 158.468 172.663 L 93.628 172.663 Q 90.108 172.663 87.602 171.126 Q 85.096 169.588 85.096 167.429 L 85.096 156.962 Q 85.096 156.144 85.949 154.508 L 96.454 134.685 Q 97.36 132.951 99.813 131.872 Q 102.266 130.792 105.199 130.792 L 146.897 130.792 Q 149.83 130.792 152.283 131.872 Q 154.736 132.951 155.642 134.685 L 166.147 154.508 Q 167 156.144 167 156.962 L 167 156.962 Z " fill-rule="evenodd" fill="rgb(255,255,255)"/><path d=" M 85.096 164.088 L 66.991 164.088 C 62.318 164.088 58.494 160.264 58.494 155.59 L 58.494 125 L 45.323 125 L 45.323 69.767 C 45.323 65.094 49.147 61.27 53.821 61.27 L 106.079 61.27 C 108.204 61.27 109.903 61.695 111.178 62.969 L 127.747 76.14 C 129.447 77.415 131.146 77.84 132.846 77.84 L 198.275 77.84 C 202.949 78.265 206.773 82.088 206.773 86.762 L 206.773 125 L 193.602 125 L 193.602 125 L 193.602 99.508 C 193.602 94.834 189.778 91.011 185.104 91.011 L 66.991 91.011 C 62.318 91.011 58.494 94.834 58.494 99.508 L 58.494 125 L 193.602 125 L 193.602 125 L 193.602 155.59 C 193.602 160.264 189.778 164.088 185.104 164.088 L 167 164.088 L 167 156.962 L 167 156.962 Q 167 156.144 166.147 154.508 L 155.642 134.685 Q 154.736 132.951 152.283 131.872 Q 149.83 130.792 146.897 130.792 L 105.199 130.792 Q 102.266 130.792 99.813 131.872 Q 97.36 132.951 96.454 134.685 L 85.949 154.508 Q 85.096 156.144 85.096 156.962 L 85.096 164.088 Z  M 91.921 164.088 L 133.346 164.088 Q 133.31 164.066 133.273 164.044 Q 132.02 163.275 132.02 162.196 Q 132.02 161.116 133.273 160.347 Q 134.526 159.579 136.286 159.579 Q 138.046 159.579 139.299 160.347 Q 140.552 161.116 140.552 162.196 L 140.552 162.196 Q 140.552 163.275 139.299 164.044 Q 139.262 164.066 139.226 164.088 L 146.997 164.088 Q 146.96 164.066 146.924 164.044 Q 145.671 163.275 145.671 162.196 Q 145.671 161.116 146.924 160.347 Q 148.177 159.579 149.937 159.579 Q 151.696 159.579 152.949 160.347 Q 154.202 161.116 154.202 162.196 L 154.202 162.196 Q 154.202 163.275 152.949 164.044 Q 152.913 164.066 152.876 164.088 L 160.175 164.088 L 160.175 156.962 Q 160.175 156.536 159.668 156.226 Q 159.162 155.915 158.468 155.915 L 93.628 155.915 Q 92.934 155.915 92.428 156.226 Q 91.921 156.536 91.921 156.962 L 91.921 164.088 L 91.921 164.088 Z  M 94.587 151.728 L 157.509 151.728 L 149.137 135.961 Q 148.924 135.535 148.284 135.257 Q 147.644 134.979 146.897 134.979 L 105.199 134.979 Q 104.452 134.979 103.812 135.257 Q 103.172 135.535 102.959 135.961 L 94.587 151.728 L 94.587 151.728 Z " fill="rgb(255,255,255)"/></g><defs><filter id="hwJuAEASKvgcc80uDq4bNbRYFLfMH3f1" x="-200%" y="-200%" width="400%" height="400%" filterUnits="objectBoundingBox" color-interpolation-filters="sRGB"><feGaussianBlur xmlns="http://www.w3.org/2000/svg" in="SourceGraphic" stdDeviation="2.146804531419514"/><feOffset xmlns="http://www.w3.org/2000/svg" dx="0" dy="5" result="pf_100_offsetBlur"/><feFlood xmlns="http://www.w3.org/2000/svg" flood-color="#000000" flood-opacity="0.65"/><feComposite xmlns="http://www.w3.org/2000/svg" in2="pf_100_offsetBlur" operator="in" result="pf_100_dropShadow"/><feBlend xmlns="http://www.w3.org/2000/svg" in="SourceGraphic" in2="pf_100_dropShadow" mode="normal"/></filter></defs></g></svg>