<?xml version="1.0" standalone="no"?><!-- Generator: Gravit.io --><svg xmlns="http://www.w3.org/2000/svg" xmlns:xlink="http://www.w3.org/1999/xlink" style="isolation:isolate" viewBox="0 0 250 250" width="250" height="250"><defs><clipPath id="_clipPath_uvT834I8PhOWrGQkawWQSoWpdN9wpzWC"><rect width="250" height="250"/></clipPath></defs><g clip-path="url(#_clipPath_uvT834I8PhOWrGQkawWQSoWpdN9wpzWC)"><rect width="250" height="250" style="fill:rgb(0,0,0)" fill-opacity="0"/><defs><filter id="icvyz8HcaOc8QCjPfUUI74RBSEhRHIw7" x="-200%" y="-200%" width="400%" height="400%" filterUnits="objectBoundingBox" color-interpolation-filters="sRGB"><feOffset xmlns="http://www.w3.org/2000/svg" in="SourceGraphic" dx="0" dy="3"/><feGaussianBlur xmlns="http://www.w3.org/2000/svg" stdDeviation="2.146804531419514" result="pf_100_offsetBlur"/><feComposite xmlns="http://www.w3.org/2000/svg" in="SourceGraphic" in2="pf_100_offsetBlur" result="pf_100_inverse" operator="out"/><feFlood xmlns="http://www.w3.org/2000/svg" flood-color="#FFFFFF" flood-opacity="0.5" result="pf_100_color"/><feComposite xmlns="http://www.w3.org/2000/svg" in="pf_100_color" in2="pf_100_inverse" operator="in" result="pf_100_shadow"/><feComposite xmlns="http://www.w3.org/2000/svg" in="pf_100_shadow" in2="SourceGraphic" operator="over" result="_out_rrAaHcW7E7iNSZWzIQ3nlVZ9UZJufyUk"/><feOffset xmlns="http://www.w3.org/2000/svg" in="_out_rrAaHcW7E7iNSZWzIQ3nlVZ9UZJufyUk" dx="0" dy="-3"/><feGaussianBlur xmlns="http://www.w3.org/2000/svg" stdDeviation="2.146804531419514" result="pf_101_offsetBlur"/><feComposite xmlns="http://www.w3.org/2000/svg" in="_out_rrAaHcW7E7iNSZWzIQ3nlVZ9UZJufyUk" in2="pf_101_offsetBlur" result="pf_101_inverse" operator="out"/><feFlood xmlns="http://www.w3.org/2000/svg" flood-color="#000000" flood-opacity="0.5" result="pf_101_color"/><feComposite xmlns="http://www.w3.org/2000/svg" in="pf_101_color" in2="pf_101_inverse" operator="in" result="pf_101_shadow"/><feComposite xmlns="http://www.w3.org/2000/svg" in="pf_101_shadow" in2="_out_rrAaHcW7E7iNSZWzIQ3nlVZ9UZJufyUk" operator="over" result="_out_Wem1Npj4mHQdpgRFBIHq1axSueTwUJG9"/><feMerge><feMergeNode in="_out_Wem1Npj4mHQdpgRFBIHq1axSueTwUJG9"/></feMerge></filter></defs><g filter="url(#icvyz8HcaOc8QCjPfUUI74RBSEhRHIw7)"><path d="M 15 0 L 235 0 C 243.279 0 250 6.721 250 15 L 250 235 C 250 243.279 243.279 250 235 250 L 15 250 C 6.721 250 0 243.279 0 235 L 0 15 C 0 6.721 6.721 0 15 0 Z" style="stroke:none;fill:#C83737;stroke-miterlimit:10;"/></g><g filter="url(#0RXQFZuZ7RinT7sD0wgOm4qZNb0r0UWI)"><path d=" M 206.773 113.772 L 206.773 180.476 C 206.773 185.15 202.949 188.973 198.275 188.973 L 53.821 188.973 C 49.147 188.973 45.323 185.15 45.323 180.476 L 45.323 113.772 C 45.323 108.249 49.997 104 55.52 104 L 196.151 104 C 202.099 104 206.773 108.674 206.773 113.772 Z  M 137.045 143.112 L 112.955 143.112 L 112.955 134.078 Q 112.955 129.091 116.484 125.562 Q 120.013 122.034 125 122.034 Q 129.987 122.034 133.516 125.562 Q 137.045 129.091 137.045 134.078 L 137.045 143.112 L 137.045 143.112 L 137.045 143.112 Z  M 97.899 147.629 L 97.899 174.73 Q 97.899 176.612 99.217 177.929 Q 100.534 179.246 102.416 179.246 L 147.584 179.246 Q 149.466 179.246 150.783 177.929 Q 152.101 176.612 152.101 174.73 L 152.101 147.629 Q 152.101 145.747 150.783 144.429 Q 149.466 143.112 147.584 143.112 L 146.078 143.112 L 146.078 134.078 Q 146.078 125.421 139.868 119.211 Q 133.657 113 125 113 Q 116.343 113 110.132 119.211 Q 103.922 125.421 103.922 134.078 L 103.922 143.112 L 102.416 143.112 Q 100.534 143.112 99.217 144.429 Q 97.899 145.747 97.899 147.629 L 97.899 147.629 L 97.899 147.629 Z " fill-rule="evenodd" fill="rgb(255,255,255)"/><path d=" M 152.101 164.088 L 152.101 164.088 L 185.104 164.088 C 189.778 164.088 193.602 160.264 193.602 155.59 L 193.602 125 L 206.773 125 L 206.773 86.762 C 206.773 82.088 202.949 78.265 198.275 77.84 L 132.846 77.84 C 131.146 77.84 129.447 77.415 127.747 76.14 L 111.178 62.969 C 109.903 61.695 108.204 61.27 106.079 61.27 L 53.821 61.27 C 49.147 61.27 45.323 65.094 45.323 69.767 L 45.323 125 L 58.494 125 L 58.494 155.59 C 58.494 160.264 62.318 164.088 66.991 164.088 L 97.899 164.088 L 97.899 164.088 L 97.899 147.629 L 97.899 147.629 Q 97.899 145.747 99.217 144.429 Q 100.534 143.112 102.416 143.112 L 103.922 143.112 L 103.922 134.078 Q 103.922 129.141 105.941 125 L 58.494 125 L 58.494 99.508 C 58.494 94.834 62.318 91.011 66.991 91.011 L 185.104 91.011 C 189.778 91.011 193.602 94.834 193.602 99.508 L 193.602 125 L 144.059 125 L 144.059 125 L 144.059 125 Q 146.078 129.141 146.078 134.078 L 146.078 143.112 L 147.584 143.112 Q 149.466 143.112 150.783 144.429 Q 152.101 145.747 152.101 147.629 L 152.101 164.088 Z  M 132.919 125 L 132.919 125 Q 133.223 125.269 133.516 125.562 Q 137.045 129.091 137.045 134.078 L 137.045 143.112 L 137.045 143.112 L 112.955 143.112 L 112.955 134.078 Q 112.955 129.091 116.484 125.562 Q 116.777 125.269 117.081 125 L 132.919 125 L 132.919 125 L 132.919 125 L 132.919 125 Z  M 117.081 125 L 117.081 125 L 105.941 125 L 105.941 125 L 117.081 125 L 117.081 125 L 117.081 125 L 117.081 125 Z " fill="rgb(255,255,255)"/></g><defs><filter id="0RXQFZuZ7RinT7sD0wgOm4qZNb0r0UWI" x="-200%" y="-200%" width="400%" height="400%" filterUnits="objectBoundingBox" color-interpolation-filters="sRGB"><feGaussianBlur xmlns="http://www.w3.org/2000/svg" in="SourceGraphic" stdDeviation="2.146804531419514"/><feOffset xmlns="http://www.w3.org/2000/svg" dx="0" dy="5" result="pf_100_offsetBlur"/><feFlood xmlns="http://www.w3.org/2000/svg" flood-color="#000000" flood-opacity="0.65"/><feComposite xmlns="http://www.w3.org/2000/svg" in2="pf_100_offsetBlur" operator="in" result="pf_100_dropShadow"/><feBlend xmlns="http://www.w3.org/2000/svg" in="SourceGraphic" in2="pf_100_dropShadow" mode="normal"/></filter></defs></g></svg>