<?xml version="1.0" standalone="no"?><!-- Generator: Gravit.io --><svg xmlns="http://www.w3.org/2000/svg" xmlns:xlink="http://www.w3.org/1999/xlink" style="isolation:isolate" viewBox="0 0 250 250" width="250" height="250"><defs><clipPath id="_clipPath_djCAv3bjhibyzac7YM9sWX5guPS67kIa"><rect width="250" height="250"/></clipPath></defs><g clip-path="url(#_clipPath_djCAv3bjhibyzac7YM9sWX5guPS67kIa)"><rect width="250" height="250" style="fill:rgb(0,0,0)" fill-opacity="0"/><defs><filter id="Fw4YwuImECiJhDAWwBN9ruVCQU43UvZn" x="-200%" y="-200%" width="400%" height="400%" filterUnits="objectBoundingBox" color-interpolation-filters="sRGB"><feOffset xmlns="http://www.w3.org/2000/svg" in="SourceGraphic" dx="0" dy="3"/><feGaussianBlur xmlns="http://www.w3.org/2000/svg" stdDeviation="2.146804531419514" result="pf_100_offsetBlur"/><feComposite xmlns="http://www.w3.org/2000/svg" in="SourceGraphic" in2="pf_100_offsetBlur" result="pf_100_inverse" operator="out"/><feFlood xmlns="http://www.w3.org/2000/svg" flood-color="#FFFFFF" flood-opacity="0.5" result="pf_100_color"/><feComposite xmlns="http://www.w3.org/2000/svg" in="pf_100_color" in2="pf_100_inverse" operator="in" result="pf_100_shadow"/><feComposite xmlns="http://www.w3.org/2000/svg" in="pf_100_shadow" in2="SourceGraphic" operator="over" result="_out_Lh0P3fK2L9UqhrNtWJ9mwjhiPeEKHkZT"/><feOffset xmlns="http://www.w3.org/2000/svg" in="_out_Lh0P3fK2L9UqhrNtWJ9mwjhiPeEKHkZT" dx="0" dy="-3"/><feGaussianBlur xmlns="http://www.w3.org/2000/svg" stdDeviation="2.146804531419514" result="pf_101_offsetBlur"/><feComposite xmlns="http://www.w3.org/2000/svg" in="_out_Lh0P3fK2L9UqhrNtWJ9mwjhiPeEKHkZT" in2="pf_101_offsetBlur" result="pf_101_inverse" operator="out"/><feFlood xmlns="http://www.w3.org/2000/svg" flood-color="#000000" flood-opacity="0.5" result="pf_101_color"/><feComposite xmlns="http://www.w3.org/2000/svg" in="pf_101_color" in2="pf_101_inverse" operator="in" result="pf_101_shadow"/><feComposite xmlns="http://www.w3.org/2000/svg" in="pf_101_shadow" in2="_out_Lh0P3fK2L9UqhrNtWJ9mwjhiPeEKHkZT" operator="over" result="_out_dKqcBLJh3RR9ERIJqO5JLPNuW2ncOV76"/><feMerge><feMergeNode in="_out_dKqcBLJh3RR9ERIJqO5JLPNuW2ncOV76"/></feMerge></filter></defs><g filter="url(#Fw4YwuImECiJhDAWwBN9ruVCQU43UvZn)"><path d="M 15 0 L 235 0 C 243.279 0 250 6.721 250 15 L 250 235 C 250 243.279 243.279 250 235 250 L 15 250 C 6.721 250 0 243.279 0 235 L 0 15 C 0 6.721 6.721 0 15 0 Z" style="stroke:none;fill:#C83737;stroke-miterlimit:10;"/></g><g filter="url(#apbtfsMYvZgtwoqJobG95N1j6Pt5vU3V)"><path d=" M 89.364 164.088 L 66.991 164.088 C 62.318 164.088 58.494 160.264 58.494 155.59 L 58.494 125 L 45.323 125 L 45.323 69.767 C 45.323 65.094 49.147 61.27 53.821 61.27 L 106.079 61.27 C 108.204 61.27 109.903 61.695 111.178 62.969 L 127.747 76.14 C 129.447 77.415 131.146 77.84 132.846 77.84 L 198.275 77.84 C 202.949 78.265 206.773 82.088 206.773 86.762 L 206.773 125 L 193.602 125 L 193.602 125 L 193.602 99.508 C 193.602 94.834 189.778 91.011 185.104 91.011 L 66.991 91.011 C 62.318 91.011 58.494 94.834 58.494 99.508 L 58.494 125 L 89.416 125 C 89.382 125.276 89.364 125.556 89.364 125.841 L 89.364 128.549 C 89.364 129.604 89.851 130.587 90.683 131.243 C 95.067 134.649 96.515 135.861 115.53 149.586 C 117.937 151.325 122.723 155.544 126.048 155.487 L 126.048 155.487 C 129.372 155.544 134.158 151.325 136.566 149.586 C 155.581 135.861 157.029 134.664 161.413 131.243 C 162.244 130.602 162.732 129.604 162.732 128.549 L 162.732 125.841 C 162.732 125.556 162.714 125.276 162.68 125 L 193.602 125 L 193.602 125 L 193.602 155.59 C 193.602 160.264 189.778 164.088 185.104 164.088 L 162.732 164.088 L 162.732 137.742 C 162.732 137.044 161.901 136.63 161.342 137.072 L 161.342 137.072 C 158.132 139.552 153.89 142.716 139.274 153.278 C 136.365 155.387 131.164 160.105 126.048 160.062 C 120.961 160.09 115.86 155.472 112.836 153.278 C 98.22 142.716 93.964 139.567 90.754 137.087 C 90.181 136.645 89.364 137.044 89.364 137.756 L 89.364 164.088 Z " fill="rgb(255,255,255)"/><path d=" M 206.773 113.529 L 206.773 180.233 C 206.773 184.906 202.949 188.73 198.275 188.73 L 53.821 188.73 C 49.147 188.73 45.323 184.906 45.323 180.233 L 45.323 113.529 C 45.323 108.005 49.997 103.757 55.52 103.757 L 196.151 103.757 C 202.099 103.757 206.773 108.43 206.773 113.529 Z  M 161.342 137.072 C 161.901 136.63 162.732 137.044 162.732 137.742 L 162.732 166.889 C 162.732 170.666 159.651 173.73 155.853 173.73 L 96.242 173.73 C 92.445 173.73 89.364 170.666 89.364 166.889 L 89.364 137.756 C 89.364 137.044 90.181 136.645 90.754 137.087 C 93.964 139.567 98.22 142.716 112.836 153.278 C 115.86 155.472 120.961 160.09 126.048 160.062 C 131.164 160.105 136.365 155.387 139.274 153.278 C 153.89 142.716 158.132 139.552 161.342 137.072 L 161.342 137.072 Z  M 126.048 155.487 C 129.372 155.544 134.158 151.325 136.566 149.586 C 155.581 135.861 157.029 134.664 161.413 131.243 C 162.244 130.602 162.732 129.604 162.732 128.549 L 162.732 125.841 C 162.732 122.064 159.651 119 155.853 119 L 96.242 119 C 92.445 119 89.364 122.064 89.364 125.841 L 89.364 128.549 C 89.364 129.604 89.851 130.587 90.683 131.243 C 95.067 134.649 96.515 135.861 115.53 149.586 C 117.937 151.325 122.723 155.544 126.048 155.487 L 126.048 155.487 Z " fill-rule="evenodd" fill="rgb(255,255,255)"/></g><defs><filter id="apbtfsMYvZgtwoqJobG95N1j6Pt5vU3V" x="-200%" y="-200%" width="400%" height="400%" filterUnits="objectBoundingBox" color-interpolation-filters="sRGB"><feGaussianBlur xmlns="http://www.w3.org/2000/svg" in="SourceGraphic" stdDeviation="2.146804531419514"/><feOffset xmlns="http://www.w3.org/2000/svg" dx="-5" dy="5" result="pf_100_offsetBlur"/><feFlood xmlns="http://www.w3.org/2000/svg" flood-color="#000000" flood-opacity="0.5"/><feComposite xmlns="http://www.w3.org/2000/svg" in2="pf_100_offsetBlur" operator="in" result="pf_100_dropShadow"/><feBlend xmlns="http://www.w3.org/2000/svg" in="SourceGraphic" in2="pf_100_dropShadow" mode="normal"/></filter></defs></g></svg>