<?xml version="1.0" standalone="no"?><!-- Generator: Gravit.io --><svg xmlns="http://www.w3.org/2000/svg" xmlns:xlink="http://www.w3.org/1999/xlink" style="isolation:isolate" viewBox="0 0 250 250" width="250" height="250"><defs><clipPath id="_clipPath_1rsu9CBoqdFbsNSP5HRv2PomOWPOrWLI"><rect width="250" height="250"/></clipPath></defs><g clip-path="url(#_clipPath_1rsu9CBoqdFbsNSP5HRv2PomOWPOrWLI)"><rect width="250" height="250" style="fill:rgb(0,0,0)" fill-opacity="0"/><defs><filter id="dyAOBZ0GXlddPnHOBfAVeWextUa1V9vH" x="-200%" y="-200%" width="400%" height="400%" filterUnits="objectBoundingBox" color-interpolation-filters="sRGB"><feOffset xmlns="http://www.w3.org/2000/svg" in="SourceGraphic" dx="0" dy="3"/><feGaussianBlur xmlns="http://www.w3.org/2000/svg" stdDeviation="2.146804531419514" result="pf_100_offsetBlur"/><feComposite xmlns="http://www.w3.org/2000/svg" in="SourceGraphic" in2="pf_100_offsetBlur" result="pf_100_inverse" operator="out"/><feFlood xmlns="http://www.w3.org/2000/svg" flood-color="#FFFFFF" flood-opacity="0.5" result="pf_100_color"/><feComposite xmlns="http://www.w3.org/2000/svg" in="pf_100_color" in2="pf_100_inverse" operator="in" result="pf_100_shadow"/><feComposite xmlns="http://www.w3.org/2000/svg" in="pf_100_shadow" in2="SourceGraphic" operator="over" result="_out_0INRkAtuyNIhc6tjed3I29yC7fjC3RwR"/><feOffset xmlns="http://www.w3.org/2000/svg" in="_out_0INRkAtuyNIhc6tjed3I29yC7fjC3RwR" dx="0" dy="-3"/><feGaussianBlur xmlns="http://www.w3.org/2000/svg" stdDeviation="2.146804531419514" result="pf_101_offsetBlur"/><feComposite xmlns="http://www.w3.org/2000/svg" in="_out_0INRkAtuyNIhc6tjed3I29yC7fjC3RwR" in2="pf_101_offsetBlur" result="pf_101_inverse" operator="out"/><feFlood xmlns="http://www.w3.org/2000/svg" flood-color="#000000" flood-opacity="0.5" result="pf_101_color"/><feComposite xmlns="http://www.w3.org/2000/svg" in="pf_101_color" in2="pf_101_inverse" operator="in" result="pf_101_shadow"/><feComposite xmlns="http://www.w3.org/2000/svg" in="pf_101_shadow" in2="_out_0INRkAtuyNIhc6tjed3I29yC7fjC3RwR" operator="over" result="_out_DzzKFq8tc4S3l6SneOwfZlon7iDHkUAy"/><feMerge><feMergeNode in="_out_DzzKFq8tc4S3l6SneOwfZlon7iDHkUAy"/></feMerge></filter></defs><g filter="url(#dyAOBZ0GXlddPnHOBfAVeWextUa1V9vH)"><path d="M 15 0 L 235 0 C 243.279 0 250 6.721 250 15 L 250 235 C 250 243.279 243.279 250 235 250 L 15 250 C 6.721 250 0 243.279 0 235 L 0 15 C 0 6.721 6.721 0 15 0 Z" style="stroke:none;fill:#C83737;stroke-miterlimit:10;"/></g><g filter="url(#xDmNb6fodlDOEG8jO8FBcE7UEKuX1Smw)"><path d=" M 193.602 125 L 206.773 125 L 206.773 86.762 C 206.773 82.088 202.949 78.265 198.275 77.84 L 132.846 77.84 C 131.146 77.84 129.447 77.415 127.747 76.14 L 111.178 62.969 C 109.903 61.695 108.204 61.27 106.079 61.27 L 53.821 61.27 C 49.147 61.27 45.323 65.094 45.323 69.767 L 45.323 125 L 58.494 125 L 58.494 99.508 C 58.494 94.834 62.318 91.011 66.991 91.011 L 185.104 91.011 C 189.778 91.011 193.602 94.834 193.602 99.508 L 193.602 125 Z " fill="rgb(255,255,255)"/><path d=" M 206.773 113.529 L 206.773 180.233 C 206.773 184.906 202.949 188.73 198.275 188.73 L 53.821 188.73 C 49.147 188.73 45.323 184.906 45.323 180.233 L 45.323 113.529 C 45.323 108.005 49.997 103.757 55.52 103.757 L 196.151 103.757 C 202.099 103.757 206.773 108.43 206.773 113.529 Z  M 154.727 162.388 L 141.027 148.688 C 138.325 145.985 134.288 145.459 131.036 147.062 L 118.565 134.59 L 118.565 127.325 L 103.589 116.093 L 96.102 123.581 L 107.333 138.556 L 114.598 138.556 L 127.07 151.028 C 125.479 154.28 125.994 158.316 128.696 161.019 L 142.396 174.719 C 144.104 176.427 146.865 176.427 148.562 174.719 L 154.727 168.553 C 156.424 166.845 156.424 164.084 154.727 162.388 L 154.727 162.388 L 154.727 162.388 Z  M 134.909 142.417 C 138.219 142.417 141.332 143.704 143.671 146.044 L 145.941 148.314 C 147.79 147.506 149.544 146.383 151.065 144.862 C 155.406 140.522 156.88 134.415 155.499 128.869 C 155.242 127.816 153.92 127.454 153.148 128.226 L 144.444 136.93 L 136.5 135.608 L 135.178 127.664 L 143.882 118.96 C 144.654 118.188 144.28 116.866 143.215 116.597 C 137.67 115.228 131.563 116.702 127.234 121.031 C 123.899 124.365 122.332 128.764 122.414 133.151 L 132.019 142.756 C 132.966 142.534 133.949 142.417 134.909 142.417 L 134.909 142.417 Z  M 103.589 171.314 C 102.045 171.314 100.782 170.051 100.782 168.507 C 100.782 166.951 102.033 165.699 103.589 165.699 C 105.145 165.699 106.397 166.951 106.397 168.507 C 106.397 170.051 105.145 171.314 103.589 171.314 L 103.589 171.314 Z  M 122.753 152.011 L 116.119 145.377 L 98.29 163.219 C 95.365 166.143 95.365 170.882 98.29 173.806 C 101.214 176.731 105.953 176.731 108.877 173.806 L 123.338 159.346 C 122.449 157.018 122.18 154.479 122.753 152.011 L 122.753 152.011 L 122.753 152.011 Z " fill-rule="evenodd" fill="rgb(255,255,255)"/></g><defs><filter id="xDmNb6fodlDOEG8jO8FBcE7UEKuX1Smw" x="-200%" y="-200%" width="400%" height="400%" filterUnits="objectBoundingBox" color-interpolation-filters="sRGB"><feGaussianBlur xmlns="http://www.w3.org/2000/svg" in="SourceGraphic" stdDeviation="2.146804531419514"/><feOffset xmlns="http://www.w3.org/2000/svg" dx="-5" dy="5" result="pf_100_offsetBlur"/><feFlood xmlns="http://www.w3.org/2000/svg" flood-color="#000000" flood-opacity="0.5"/><feComposite xmlns="http://www.w3.org/2000/svg" in2="pf_100_offsetBlur" operator="in" result="pf_100_dropShadow"/><feBlend xmlns="http://www.w3.org/2000/svg" in="SourceGraphic" in2="pf_100_dropShadow" mode="normal"/></filter></defs></g></svg>